# MagicaVoxel @ Ephtracy

# material
mtllib Sales.mtl
usemtl palette

# normals
vn -1 0 0
vn 1 0 0
vn 0 0 1
vn 0 0 -1
vn 0 -1 0
vn 0 1 0

# texcoords
vt 0.306641 0.5
vt 0.841797 0.5
vt 0.958984 0.5

# verts
v -4 0 7
v -4 0 -5
v -4 19 20
v -4 19 7
v -4 19 -5
v -4 19 -20
v -4 40 20
v -4 40 -20
v 7 0 7
v 7 0 -5
v 7 19 20
v 7 19 7
v 7 19 -5
v 7 19 -20
v 7 20 18
v 7 20 -18
v 7 22 -8
v 7 22 -9
v 7 23 9
v 7 23 6
v 7 23 -1
v 7 23 -4
v 7 23 -8
v 7 23 -9
v 7 23 -10
v 7 23 -13
v 7 23 -16
v 7 24 11
v 7 24 9
v 7 24 6
v 7 24 5
v 7 24 1
v 7 24 -1
v 7 24 -4
v 7 24 -5
v 7 24 -12
v 7 24 -13
v 7 24 -16
v 7 24 -17
v 7 25 11
v 7 25 9
v 7 25 1
v 7 25 -1
v 7 25 -9
v 7 25 -10
v 7 25 -11
v 7 26 6
v 7 26 5
v 7 26 4
v 7 26 -4
v 7 26 -5
v 7 26 -6
v 7 26 -12
v 7 26 -13
v 7 26 -16
v 7 26 -17
v 7 27 5
v 7 27 4
v 7 27 3
v 7 27 -5
v 7 27 -6
v 7 27 -7
v 7 27 -10
v 7 27 -11
v 7 27 -12
v 7 27 -13
v 7 27 -16
v 7 29 4
v 7 29 3
v 7 29 2
v 7 29 -6
v 7 29 -7
v 7 29 -8
v 7 29 -11
v 7 29 -12
v 7 29 -13
v 7 30 10
v 7 30 3
v 7 30 -0
v 7 30 -7
v 7 31 11
v 7 31 10
v 7 31 3
v 7 31 1
v 7 31 -0
v 7 31 -7
v 7 31 -12
v 7 31 -13
v 7 31 -14
v 7 33 -13
v 7 33 -14
v 7 33 -15
v 7 34 -10
v 7 34 -13
v 7 35 -9
v 7 35 -10
v 7 35 -13
v 7 35 -14
v 7 35 -15
v 7 35 -16
v 7 36 11
v 7 36 10
v 7 36 3
v 7 36 2
v 7 36 1
v 7 36 -0
v 7 36 -7
v 7 36 -8
v 7 36 -15
v 7 36 -16
v 7 37 10
v 7 37 3
v 7 37 -0
v 7 37 -7
v 7 37 -9
v 7 37 -10
v 7 37 -13
v 7 37 -14
v 7 38 -10
v 7 38 -13
v 7 39 18
v 7 39 -18
v 7 40 20
v 7 40 -20
v -4 19 20
v -4 40 20
v 7 19 20
v 7 40 20
v -4 0 7
v -4 19 7
v 7 0 7
v 7 19 7
v -4 0 -5
v -4 19 -5
v 7 0 -5
v 7 19 -5
v -4 19 -20
v -4 40 -20
v 7 19 -20
v 7 40 -20
v -4 0 7
v 7 0 7
v -4 0 -5
v 7 0 -5
v -4 19 20
v 7 19 20
v -4 19 7
v 7 19 7
v -4 19 -5
v 7 19 -5
v -4 19 -20
v 7 19 -20
v -4 40 20
v 7 40 20
v -4 40 -20
v 7 40 -20

# faces
f 4/2/1 2/2/1 1/2/1
f 5/2/1 2/2/1 4/2/1
f 7/2/1 4/2/1 3/2/1
f 7/2/1 6/2/1 5/2/1
f 7/2/1 5/2/1 4/2/1
f 8/2/1 6/2/1 7/2/1
f 9/2/2 10/2/2 12/2/2
f 12/2/2 10/2/2 13/2/2
f 11/2/2 12/2/2 15/2/2
f 13/2/2 14/2/2 15/2/2
f 12/2/2 13/2/2 15/2/2
f 15/2/2 14/2/2 16/2/2
f 15/3/2 16/3/2 17/3/2
f 17/3/2 16/3/2 18/3/2
f 15/3/2 17/3/2 19/3/2
f 19/3/2 17/3/2 20/3/2
f 20/3/2 17/3/2 21/3/2
f 21/3/2 17/3/2 22/3/2
f 17/2/2 18/2/2 23/2/2
f 22/3/2 17/3/2 23/3/2
f 18/3/2 16/3/2 24/3/2
f 23/2/2 18/2/2 24/2/2
f 24/3/2 16/3/2 25/3/2
f 25/3/2 16/3/2 26/3/2
f 26/3/2 16/3/2 27/3/2
f 15/3/2 19/3/2 28/3/2
f 19/2/2 20/2/2 29/2/2
f 28/3/2 19/3/2 29/3/2
f 20/3/2 21/3/2 30/3/2
f 29/2/2 20/2/2 30/2/2
f 30/3/2 21/3/2 31/3/2
f 31/3/2 21/3/2 32/3/2
f 21/2/2 22/2/2 33/2/2
f 32/3/2 21/3/2 33/3/2
f 22/3/2 23/3/2 34/3/2
f 33/2/2 22/2/2 34/2/2
f 23/3/2 24/3/2 34/3/2
f 34/3/2 24/3/2 35/3/2
f 25/3/2 26/3/2 36/3/2
f 26/2/2 27/2/2 37/2/2
f 36/3/2 26/3/2 37/3/2
f 27/3/2 16/3/2 38/3/2
f 37/2/2 27/2/2 38/2/2
f 38/3/2 16/3/2 39/3/2
f 15/3/2 28/3/2 40/3/2
f 28/2/2 29/2/2 40/2/2
f 29/3/2 30/3/2 41/3/2
f 40/2/2 29/2/2 41/2/2
f 32/2/2 33/2/2 42/2/2
f 31/3/2 32/3/2 42/3/2
f 33/3/2 34/3/2 43/3/2
f 42/2/2 33/2/2 43/2/2
f 24/2/2 25/2/2 44/2/2
f 35/3/2 24/3/2 44/3/2
f 25/3/2 36/3/2 45/3/2
f 44/2/2 25/2/2 45/2/2
f 45/3/2 36/3/2 46/3/2
f 41/3/2 30/3/2 47/3/2
f 40/3/2 41/3/2 47/3/2
f 30/2/2 31/2/2 47/2/2
f 42/3/2 43/3/2 48/3/2
f 47/2/2 31/2/2 48/2/2
f 31/3/2 42/3/2 48/3/2
f 48/3/2 43/3/2 49/3/2
f 43/3/2 34/3/2 50/3/2
f 49/3/2 43/3/2 50/3/2
f 34/2/2 35/2/2 50/2/2
f 44/3/2 45/3/2 51/3/2
f 50/2/2 35/2/2 51/2/2
f 35/3/2 44/3/2 51/3/2
f 51/3/2 45/3/2 52/3/2
f 46/3/2 36/3/2 53/3/2
f 36/2/2 37/2/2 53/2/2
f 37/3/2 38/3/2 54/3/2
f 53/2/2 37/2/2 54/2/2
f 38/2/2 39/2/2 55/2/2
f 54/3/2 38/3/2 55/3/2
f 39/3/2 16/3/2 56/3/2
f 55/2/2 39/2/2 56/2/2
f 48/2/2 49/2/2 57/2/2
f 47/3/2 48/3/2 57/3/2
f 49/3/2 50/3/2 58/3/2
f 57/2/2 49/2/2 58/2/2
f 50/3/2 51/3/2 58/3/2
f 58/3/2 51/3/2 59/3/2
f 51/2/2 52/2/2 60/2/2
f 59/3/2 51/3/2 60/3/2
f 52/3/2 45/3/2 61/3/2
f 60/2/2 52/2/2 61/2/2
f 61/3/2 45/3/2 62/3/2
f 45/2/2 46/2/2 63/2/2
f 62/3/2 45/3/2 63/3/2
f 53/3/2 54/3/2 64/3/2
f 63/2/2 46/2/2 64/2/2
f 46/3/2 53/3/2 64/3/2
f 64/3/2 54/3/2 65/3/2
f 54/2/2 55/2/2 66/2/2
f 65/3/2 54/3/2 66/3/2
f 55/3/2 56/3/2 67/3/2
f 66/2/2 55/2/2 67/2/2
f 58/2/2 59/2/2 68/2/2
f 57/3/2 58/3/2 68/3/2
f 59/3/2 60/3/2 69/3/2
f 68/2/2 59/2/2 69/2/2
f 60/3/2 61/3/2 69/3/2
f 69/3/2 61/3/2 70/3/2
f 61/2/2 62/2/2 71/2/2
f 70/3/2 61/3/2 71/3/2
f 62/3/2 63/3/2 72/3/2
f 71/2/2 62/2/2 72/2/2
f 63/3/2 64/3/2 72/3/2
f 72/3/2 64/3/2 73/3/2
f 64/2/2 65/2/2 74/2/2
f 73/3/2 64/3/2 74/3/2
f 65/3/2 66/3/2 75/3/2
f 74/2/2 65/2/2 75/2/2
f 66/3/2 67/3/2 75/3/2
f 75/3/2 67/3/2 76/3/2
f 57/3/2 68/3/2 77/3/2
f 47/3/2 57/3/2 77/3/2
f 40/3/2 47/3/2 77/3/2
f 68/3/2 69/3/2 77/3/2
f 69/2/2 70/2/2 78/2/2
f 77/3/2 69/3/2 78/3/2
f 70/3/2 71/3/2 79/3/2
f 71/3/2 72/3/2 79/3/2
f 72/2/2 73/2/2 80/2/2
f 79/3/2 72/3/2 80/3/2
f 40/3/2 77/3/2 81/3/2
f 15/3/2 40/3/2 81/3/2
f 77/2/2 78/2/2 82/2/2
f 81/3/2 77/3/2 82/3/2
f 78/2/2 70/2/2 83/2/2
f 82/2/2 78/2/2 83/2/2
f 70/3/2 79/3/2 84/3/2
f 79/2/2 80/2/2 85/2/2
f 84/3/2 79/3/2 85/3/2
f 80/2/2 73/2/2 86/2/2
f 85/2/2 80/2/2 86/2/2
f 75/2/2 76/2/2 87/2/2
f 74/3/2 75/3/2 87/3/2
f 73/3/2 74/3/2 87/3/2
f 76/3/2 67/3/2 88/3/2
f 87/2/2 76/2/2 88/2/2
f 88/3/2 67/3/2 89/3/2
f 87/3/2 88/3/2 90/3/2
f 88/2/2 89/2/2 90/2/2
f 89/3/2 67/3/2 91/3/2
f 90/2/2 89/2/2 91/2/2
f 91/3/2 67/3/2 92/3/2
f 73/3/2 87/3/2 93/3/2
f 87/3/2 90/3/2 93/3/2
f 90/3/2 91/3/2 93/3/2
f 93/3/2 91/3/2 94/3/2
f 73/3/2 93/3/2 95/3/2
f 93/2/2 94/2/2 96/2/2
f 95/3/2 93/3/2 96/3/2
f 94/3/2 91/3/2 97/3/2
f 96/2/2 94/2/2 97/2/2
f 91/2/2 92/2/2 98/2/2
f 97/3/2 91/3/2 98/3/2
f 92/3/2 67/3/2 99/3/2
f 98/2/2 92/2/2 99/2/2
f 67/3/2 56/3/2 100/3/2
f 99/3/2 67/3/2 100/3/2
f 81/2/2 82/2/2 101/2/2
f 15/3/2 81/3/2 101/3/2
f 82/3/2 83/3/2 102/3/2
f 101/2/2 82/2/2 102/2/2
f 83/2/2 70/2/2 103/2/2
f 102/3/2 83/3/2 103/3/2
f 70/3/2 84/3/2 104/3/2
f 103/2/2 70/2/2 104/2/2
f 84/2/2 85/2/2 105/2/2
f 104/3/2 84/3/2 105/3/2
f 85/3/2 86/3/2 106/3/2
f 105/2/2 85/2/2 106/2/2
f 86/2/2 73/2/2 107/2/2
f 106/3/2 86/3/2 107/3/2
f 73/3/2 95/3/2 108/3/2
f 107/2/2 73/2/2 108/2/2
f 98/3/2 99/3/2 109/3/2
f 99/2/2 100/2/2 109/2/2
f 100/3/2 56/3/2 110/3/2
f 109/2/2 100/2/2 110/2/2
f 101/3/2 102/3/2 111/3/2
f 102/2/2 103/2/2 111/2/2
f 103/3/2 104/3/2 112/3/2
f 111/2/2 103/2/2 112/2/2
f 105/3/2 106/3/2 112/3/2
f 104/3/2 105/3/2 112/3/2
f 106/2/2 107/2/2 113/2/2
f 112/3/2 106/3/2 113/3/2
f 107/3/2 108/3/2 114/3/2
f 113/2/2 107/2/2 114/2/2
f 108/3/2 95/3/2 115/3/2
f 114/3/2 108/3/2 115/3/2
f 95/2/2 96/2/2 115/2/2
f 96/3/2 97/3/2 116/3/2
f 115/2/2 96/2/2 116/2/2
f 97/2/2 98/2/2 117/2/2
f 116/3/2 97/3/2 117/3/2
f 98/3/2 109/3/2 118/3/2
f 117/2/2 98/2/2 118/2/2
f 109/3/2 110/3/2 118/3/2
f 115/3/2 116/3/2 119/3/2
f 113/3/2 114/3/2 119/3/2
f 116/2/2 117/2/2 119/2/2
f 112/3/2 113/3/2 119/3/2
f 111/3/2 112/3/2 119/3/2
f 114/3/2 115/3/2 119/3/2
f 117/3/2 118/3/2 120/3/2
f 119/2/2 117/2/2 120/2/2
f 11/2/2 15/2/2 121/2/2
f 101/3/2 111/3/2 121/3/2
f 119/3/2 120/3/2 121/3/2
f 111/3/2 119/3/2 121/3/2
f 15/3/2 101/3/2 121/3/2
f 120/3/2 118/3/2 122/3/2
f 121/3/2 120/3/2 122/3/2
f 16/2/2 14/2/2 122/2/2
f 110/3/2 56/3/2 122/3/2
f 56/3/2 16/3/2 122/3/2
f 118/3/2 110/3/2 122/3/2
f 11/2/2 121/2/2 123/2/2
f 121/2/2 122/2/2 123/2/2
f 122/2/2 14/2/2 124/2/2
f 123/2/2 122/2/2 124/2/2
f 127/2/3 126/2/3 125/2/3
f 128/2/3 126/2/3 127/2/3
f 131/2/3 130/2/3 129/2/3
f 132/2/3 130/2/3 131/2/3
f 133/2/4 134/2/4 135/2/4
f 135/2/4 134/2/4 136/2/4
f 137/2/4 138/2/4 139/2/4
f 139/2/4 138/2/4 140/2/4
f 143/2/5 142/2/5 141/2/5
f 144/2/5 142/2/5 143/2/5
f 147/2/5 146/2/5 145/2/5
f 148/2/5 146/2/5 147/2/5
f 151/2/5 150/2/5 149/2/5
f 152/2/5 150/2/5 151/2/5
f 153/2/6 154/2/6 155/2/6
f 155/2/6 154/2/6 156/2/6
