# MagicaVoxel @ Ephtracy

# material
mtllib Wall.mtl
usemtl palette

# normals
vn -1 0 0
vn 1 0 0
vn 0 0 1
vn 0 0 -1
vn 0 -1 0
vn 0 1 0

# texcoords
vt 0.974609 0.5
vt 0.978516 0.5
vt 0.982422 0.5
vt 0.986328 0.5

# verts
v -40 0 10
v -40 0 -10
v -40 15 10
v -40 15 9
v -40 16 10
v -40 16 9
v -40 29 10
v -40 29 9
v -40 30 10
v -40 30 9
v -40 44 10
v -40 44 9
v -40 45 10
v -40 45 9
v -40 59 10
v -40 59 9
v -40 60 10
v -40 60 9
v -40 73 10
v -40 73 9
v -40 74 10
v -40 74 9
v -40 74 5
v -40 89 10
v -40 89 9
v -40 89 5
v -40 90 10
v -40 90 9
v -40 105 10
v -40 105 9
v -40 106 10
v -40 106 9
v -40 120 10
v -40 120 9
v -40 120 -10
v 40 0 10
v 40 0 -10
v 40 15 10
v 40 15 9
v 40 16 10
v 40 16 9
v 40 29 10
v 40 29 9
v 40 30 10
v 40 30 9
v 40 44 10
v 40 44 9
v 40 45 10
v 40 45 9
v 40 59 10
v 40 59 9
v 40 60 10
v 40 60 9
v 40 73 10
v 40 73 9
v 40 74 10
v 40 74 9
v 40 89 10
v 40 89 9
v 40 90 10
v 40 90 9
v 40 105 10
v 40 105 9
v 40 106 10
v 40 106 9
v 40 120 10
v 40 120 9
v 40 120 -10
v -40 0 10
v -40 15 10
v -40 16 10
v -40 29 10
v -40 30 10
v -40 44 10
v -40 45 10
v -40 59 10
v -40 60 10
v -40 73 10
v -40 74 10
v -40 89 10
v -40 90 10
v -40 105 10
v -40 106 10
v -40 120 10
v -26 0 10
v -26 15 10
v -26 30 10
v -26 44 10
v -26 60 10
v -26 73 10
v -26 90 10
v -26 105 10
v -25 0 10
v -25 15 10
v -25 30 10
v -25 44 10
v -25 60 10
v -25 73 10
v -25 90 10
v -25 105 10
v -16 16 10
v -16 29 10
v -16 45 10
v -16 59 10
v -16 74 10
v -16 89 10
v -16 106 10
v -16 120 10
v -15 16 10
v -15 29 10
v -15 45 10
v -15 59 10
v -15 74 10
v -15 89 10
v -15 106 10
v -15 120 10
v -2 60 10
v -2 73 10
v -2 90 10
v -2 105 10
v -1 0 10
v -1 15 10
v -1 30 10
v -1 44 10
v -1 60 10
v -1 73 10
v -1 90 10
v -1 105 10
v 0 0 10
v 0 15 10
v 0 30 10
v 0 44 10
v 13 106 10
v 13 120 10
v 14 74 10
v 14 89 10
v 14 106 10
v 14 120 10
v 15 16 10
v 15 29 10
v 15 45 10
v 15 59 10
v 15 74 10
v 15 89 10
v 16 16 10
v 16 29 10
v 16 45 10
v 16 59 10
v 27 0 10
v 27 15 10
v 27 30 10
v 27 44 10
v 27 60 10
v 27 73 10
v 27 90 10
v 27 105 10
v 28 0 10
v 28 15 10
v 28 30 10
v 28 44 10
v 28 60 10
v 28 73 10
v 28 90 10
v 28 105 10
v 40 0 10
v 40 15 10
v 40 16 10
v 40 29 10
v 40 30 10
v 40 44 10
v 40 45 10
v 40 59 10
v 40 60 10
v 40 73 10
v 40 74 10
v 40 89 10
v 40 90 10
v 40 105 10
v 40 106 10
v 40 120 10
v -40 0 -10
v -40 120 -10
v 40 0 -10
v 40 120 -10
v -40 0 10
v -26 0 10
v -25 0 10
v -1 0 10
v 0 0 10
v 27 0 10
v 28 0 10
v 40 0 10
v -26 0 9
v -25 0 9
v -1 0 9
v 0 0 9
v 27 0 9
v 28 0 9
v -40 0 -10
v 40 0 -10
v -40 120 10
v -16 120 10
v -15 120 10
v 13 120 10
v 14 120 10
v 40 120 10
v -40 120 9
v -16 120 9
v -15 120 9
v 13 120 9
v 14 120 9
v 40 120 9
v -40 120 -10
v 40 120 -10

# faces
f 3/1/1 2/1/1 1/1/1
f 4/1/1 2/1/1 3/1/1
f 5/4/1 4/4/1 3/4/1
f 6/1/1 2/1/1 4/1/1
f 6/4/1 4/4/1 5/4/1
f 7/1/1 6/1/1 5/1/1
f 8/1/1 2/1/1 6/1/1
f 8/1/1 6/1/1 7/1/1
f 9/4/1 8/4/1 7/4/1
f 10/1/1 2/1/1 8/1/1
f 10/4/1 8/4/1 9/4/1
f 11/1/1 10/1/1 9/1/1
f 12/1/1 2/1/1 10/1/1
f 12/1/1 10/1/1 11/1/1
f 13/4/1 12/4/1 11/4/1
f 14/1/1 2/1/1 12/1/1
f 14/4/1 12/4/1 13/4/1
f 15/1/1 14/1/1 13/1/1
f 16/1/1 2/1/1 14/1/1
f 16/1/1 14/1/1 15/1/1
f 17/4/1 16/4/1 15/4/1
f 18/1/1 2/1/1 16/1/1
f 18/4/1 16/4/1 17/4/1
f 19/1/1 18/1/1 17/1/1
f 20/1/1 2/1/1 18/1/1
f 20/1/1 18/1/1 19/1/1
f 21/4/1 20/4/1 19/4/1
f 22/1/1 2/1/1 20/1/1
f 22/4/1 20/4/1 21/4/1
f 23/1/1 2/1/1 22/1/1
f 24/2/1 22/2/1 21/2/1
f 24/2/1 23/2/1 22/2/1
f 25/2/1 23/2/1 24/2/1
f 26/1/1 2/1/1 23/1/1
f 26/2/1 23/2/1 25/2/1
f 27/4/1 25/4/1 24/4/1
f 28/1/1 26/1/1 25/1/1
f 28/4/1 25/4/1 27/4/1
f 29/1/1 28/1/1 27/1/1
f 30/1/1 26/1/1 28/1/1
f 30/1/1 28/1/1 29/1/1
f 31/4/1 30/4/1 29/4/1
f 32/1/1 26/1/1 30/1/1
f 32/4/1 30/4/1 31/4/1
f 33/2/1 32/2/1 31/2/1
f 34/1/1 26/1/1 32/1/1
f 34/2/1 32/2/1 33/2/1
f 35/1/1 2/1/1 26/1/1
f 35/1/1 26/1/1 34/1/1
f 36/1/2 37/1/2 38/1/2
f 38/1/2 37/1/2 39/1/2
f 38/4/2 39/4/2 40/4/2
f 39/1/2 37/1/2 41/1/2
f 40/4/2 39/4/2 41/4/2
f 40/2/2 41/2/2 42/2/2
f 41/1/2 37/1/2 43/1/2
f 42/2/2 41/2/2 43/2/2
f 42/4/2 43/4/2 44/4/2
f 43/1/2 37/1/2 45/1/2
f 44/4/2 43/4/2 45/4/2
f 44/1/2 45/1/2 46/1/2
f 45/1/2 37/1/2 47/1/2
f 46/1/2 45/1/2 47/1/2
f 46/4/2 47/4/2 48/4/2
f 47/1/2 37/1/2 49/1/2
f 48/4/2 47/4/2 49/4/2
f 48/1/2 49/1/2 50/1/2
f 49/1/2 37/1/2 51/1/2
f 50/1/2 49/1/2 51/1/2
f 50/4/2 51/4/2 52/4/2
f 51/1/2 37/1/2 53/1/2
f 52/4/2 51/4/2 53/4/2
f 52/1/2 53/1/2 54/1/2
f 53/1/2 37/1/2 55/1/2
f 54/1/2 53/1/2 55/1/2
f 54/4/2 55/4/2 56/4/2
f 55/1/2 37/1/2 57/1/2
f 56/4/2 55/4/2 57/4/2
f 56/1/2 57/1/2 58/1/2
f 57/1/2 37/1/2 59/1/2
f 58/1/2 57/1/2 59/1/2
f 58/4/2 59/4/2 60/4/2
f 59/1/2 37/1/2 61/1/2
f 60/4/2 59/4/2 61/4/2
f 60/1/2 61/1/2 62/1/2
f 61/1/2 37/1/2 63/1/2
f 62/1/2 61/1/2 63/1/2
f 62/4/2 63/4/2 64/4/2
f 63/1/2 37/1/2 65/1/2
f 64/4/2 63/4/2 65/4/2
f 64/2/2 65/2/2 66/2/2
f 65/1/2 37/1/2 67/1/2
f 66/2/2 65/2/2 67/2/2
f 67/1/2 37/1/2 68/1/2
f 85/1/3 70/1/3 69/1/3
f 86/4/3 71/4/3 70/4/3
f 86/1/3 70/1/3 85/1/3
f 87/4/3 73/4/3 72/4/3
f 87/1/3 74/1/3 73/1/3
f 88/4/3 75/4/3 74/4/3
f 88/1/3 74/1/3 87/1/3
f 89/4/3 77/4/3 76/4/3
f 89/1/3 78/1/3 77/1/3
f 90/4/3 79/4/3 78/4/3
f 90/1/3 78/1/3 89/1/3
f 91/4/3 81/4/3 80/4/3
f 91/1/3 82/1/3 81/1/3
f 92/4/3 83/4/3 82/4/3
f 92/1/3 82/1/3 91/1/3
f 93/4/3 86/4/3 85/4/3
f 94/4/3 71/4/3 86/4/3
f 94/4/3 86/4/3 93/4/3
f 95/4/3 87/4/3 72/4/3
f 95/4/3 88/4/3 87/4/3
f 96/4/3 75/4/3 88/4/3
f 96/4/3 88/4/3 95/4/3
f 97/4/3 89/4/3 76/4/3
f 97/4/3 90/4/3 89/4/3
f 98/4/3 79/4/3 90/4/3
f 98/4/3 90/4/3 97/4/3
f 99/4/3 91/4/3 80/4/3
f 99/4/3 92/4/3 91/4/3
f 100/4/3 83/4/3 92/4/3
f 100/4/3 92/4/3 99/4/3
f 101/1/3 72/1/3 71/1/3
f 101/4/3 71/4/3 94/4/3
f 102/4/3 95/4/3 72/4/3
f 102/1/3 72/1/3 101/1/3
f 103/1/3 76/1/3 75/1/3
f 103/4/3 75/4/3 96/4/3
f 104/4/3 97/4/3 76/4/3
f 104/1/3 76/1/3 103/1/3
f 105/2/3 80/2/3 79/2/3
f 105/4/3 79/4/3 98/4/3
f 106/4/3 99/4/3 80/4/3
f 106/2/3 80/2/3 105/2/3
f 107/2/3 84/2/3 83/2/3
f 107/4/3 83/4/3 100/4/3
f 108/2/3 84/2/3 107/2/3
f 109/4/3 101/4/3 94/4/3
f 109/4/3 102/4/3 101/4/3
f 110/4/3 95/4/3 102/4/3
f 110/4/3 102/4/3 109/4/3
f 111/4/3 103/4/3 96/4/3
f 111/4/3 104/4/3 103/4/3
f 112/4/3 97/4/3 104/4/3
f 112/4/3 104/4/3 111/4/3
f 113/4/3 106/4/3 105/4/3
f 113/4/3 105/4/3 98/4/3
f 114/4/3 99/4/3 106/4/3
f 114/4/3 106/4/3 113/4/3
f 115/4/3 108/4/3 107/4/3
f 115/4/3 107/4/3 100/4/3
f 116/4/3 108/4/3 115/4/3
f 117/4/3 97/4/3 112/4/3
f 117/1/3 98/1/3 97/1/3
f 118/4/3 113/4/3 98/4/3
f 118/1/3 98/1/3 117/1/3
f 119/1/3 100/1/3 99/1/3
f 119/4/3 99/4/3 114/4/3
f 120/4/3 115/4/3 100/4/3
f 120/1/3 100/1/3 119/1/3
f 121/2/3 94/2/3 93/2/3
f 122/4/3 109/4/3 94/4/3
f 122/2/3 94/2/3 121/2/3
f 123/4/3 95/4/3 110/4/3
f 123/2/3 96/2/3 95/2/3
f 124/4/3 111/4/3 96/4/3
f 124/2/3 96/2/3 123/2/3
f 125/4/3 117/4/3 112/4/3
f 125/4/3 118/4/3 117/4/3
f 126/4/3 113/4/3 118/4/3
f 126/4/3 118/4/3 125/4/3
f 127/4/3 119/4/3 114/4/3
f 127/4/3 120/4/3 119/4/3
f 128/4/3 115/4/3 120/4/3
f 128/4/3 120/4/3 127/4/3
f 129/4/3 122/4/3 121/4/3
f 130/4/3 109/4/3 122/4/3
f 130/4/3 122/4/3 129/4/3
f 131/4/3 124/4/3 123/4/3
f 131/4/3 123/4/3 110/4/3
f 132/4/3 111/4/3 124/4/3
f 132/4/3 124/4/3 131/4/3
f 133/4/3 115/4/3 128/4/3
f 133/1/3 116/1/3 115/1/3
f 134/1/3 116/1/3 133/1/3
f 135/1/3 114/1/3 113/1/3
f 135/4/3 113/4/3 126/4/3
f 136/4/3 127/4/3 114/4/3
f 136/1/3 114/1/3 135/1/3
f 137/4/3 134/4/3 133/4/3
f 137/4/3 133/4/3 128/4/3
f 138/4/3 134/4/3 137/4/3
f 139/4/3 109/4/3 130/4/3
f 139/1/3 110/1/3 109/1/3
f 140/4/3 131/4/3 110/4/3
f 140/1/3 110/1/3 139/1/3
f 141/1/3 112/1/3 111/1/3
f 141/4/3 111/4/3 132/4/3
f 142/4/3 125/4/3 112/4/3
f 142/1/3 112/1/3 141/1/3
f 143/4/3 135/4/3 126/4/3
f 143/4/3 136/4/3 135/4/3
f 144/4/3 127/4/3 136/4/3
f 144/4/3 136/4/3 143/4/3
f 145/4/3 139/4/3 130/4/3
f 145/4/3 140/4/3 139/4/3
f 146/4/3 131/4/3 140/4/3
f 146/4/3 140/4/3 145/4/3
f 147/4/3 141/4/3 132/4/3
f 147/4/3 142/4/3 141/4/3
f 148/4/3 125/4/3 142/4/3
f 148/4/3 142/4/3 147/4/3
f 149/1/3 130/1/3 129/1/3
f 150/4/3 145/4/3 130/4/3
f 150/1/3 130/1/3 149/1/3
f 151/4/3 131/4/3 146/4/3
f 151/1/3 132/1/3 131/1/3
f 152/4/3 147/4/3 132/4/3
f 152/1/3 132/1/3 151/1/3
f 153/4/3 125/4/3 148/4/3
f 153/2/3 126/2/3 125/2/3
f 154/4/3 143/4/3 126/4/3
f 154/2/3 126/2/3 153/2/3
f 155/4/3 127/4/3 144/4/3
f 155/1/3 128/1/3 127/1/3
f 156/4/3 137/4/3 128/4/3
f 156/1/3 128/1/3 155/1/3
f 157/4/3 150/4/3 149/4/3
f 158/4/3 145/4/3 150/4/3
f 158/4/3 150/4/3 157/4/3
f 159/4/3 151/4/3 146/4/3
f 159/4/3 152/4/3 151/4/3
f 160/4/3 147/4/3 152/4/3
f 160/4/3 152/4/3 159/4/3
f 161/4/3 153/4/3 148/4/3
f 161/4/3 154/4/3 153/4/3
f 162/4/3 143/4/3 154/4/3
f 162/4/3 154/4/3 161/4/3
f 163/4/3 155/4/3 144/4/3
f 163/4/3 156/4/3 155/4/3
f 164/4/3 137/4/3 156/4/3
f 164/4/3 156/4/3 163/4/3
f 165/1/3 158/1/3 157/1/3
f 166/4/3 145/4/3 158/4/3
f 166/1/3 158/1/3 165/1/3
f 167/2/3 146/2/3 145/2/3
f 167/4/3 145/4/3 166/4/3
f 168/4/3 159/4/3 146/4/3
f 168/2/3 146/2/3 167/2/3
f 169/1/3 160/1/3 159/1/3
f 169/4/3 159/4/3 168/4/3
f 170/4/3 147/4/3 160/4/3
f 170/1/3 160/1/3 169/1/3
f 171/1/3 148/1/3 147/1/3
f 171/4/3 147/4/3 170/4/3
f 172/4/3 161/4/3 148/4/3
f 172/1/3 148/1/3 171/1/3
f 173/1/3 162/1/3 161/1/3
f 173/4/3 161/4/3 172/4/3
f 174/4/3 143/4/3 162/4/3
f 174/1/3 162/1/3 173/1/3
f 175/1/3 144/1/3 143/1/3
f 175/4/3 143/4/3 174/4/3
f 176/4/3 163/4/3 144/4/3
f 176/1/3 144/1/3 175/1/3
f 177/1/3 164/1/3 163/1/3
f 177/4/3 163/4/3 176/4/3
f 178/4/3 137/4/3 164/4/3
f 178/1/3 164/1/3 177/1/3
f 179/2/3 138/2/3 137/2/3
f 179/4/3 137/4/3 178/4/3
f 180/2/3 138/2/3 179/2/3
f 181/1/4 182/1/4 183/1/4
f 183/1/4 182/1/4 184/1/4
f 193/1/5 186/1/5 185/1/5
f 193/4/5 187/4/5 186/4/5
f 194/2/5 188/2/5 187/2/5
f 194/4/5 187/4/5 193/4/5
f 195/4/5 189/4/5 188/4/5
f 195/2/5 188/2/5 194/2/5
f 196/1/5 190/1/5 189/1/5
f 196/4/5 189/4/5 195/4/5
f 197/4/5 191/4/5 190/4/5
f 197/1/5 190/1/5 196/1/5
f 198/1/5 192/1/5 191/1/5
f 198/4/5 191/4/5 197/4/5
f 199/1/5 197/1/5 196/1/5
f 199/1/5 196/1/5 195/1/5
f 199/1/5 198/1/5 197/1/5
f 199/1/5 195/1/5 194/1/5
f 199/1/5 194/1/5 193/1/5
f 199/1/5 193/1/5 185/1/5
f 200/1/5 192/1/5 198/1/5
f 200/1/5 198/1/5 199/1/5
f 201/2/6 202/2/6 207/2/6
f 202/4/6 203/4/6 208/4/6
f 207/2/6 202/2/6 208/2/6
f 203/1/6 204/1/6 209/1/6
f 208/4/6 203/4/6 209/4/6
f 204/4/6 205/4/6 210/4/6
f 209/1/6 204/1/6 210/1/6
f 205/2/6 206/2/6 211/2/6
f 210/4/6 205/4/6 211/4/6
f 211/2/6 206/2/6 212/2/6
f 209/1/6 210/1/6 213/1/6
f 207/1/6 208/1/6 213/1/6
f 211/1/6 212/1/6 213/1/6
f 210/1/6 211/1/6 213/1/6
f 208/1/6 209/1/6 213/1/6
f 213/1/6 212/1/6 214/1/6
