# MagicaVoxel @ Ephtracy

# material
mtllib Road.mtl
usemtl palette

# normals
vn -1 0 0
vn 1 0 0
vn 0 0 1
vn 0 0 -1
vn 0 -1 0
vn 0 1 0

# texcoords
vt 0.958984 0.5
vt 0.982422 0.5

# verts
v -40 0 40
v -40 0 -40
v -40 80 40
v -40 80 -40
v 40 0 40
v 40 0 -40
v 40 80 40
v 40 80 -40
v -40 0 40
v -40 80 40
v 40 0 40
v 40 80 40
v -40 0 -40
v -40 80 -40
v 40 0 -40
v 40 80 -40
v -40 0 40
v 40 0 40
v -40 0 -40
v 40 0 -40
v -40 80 40
v 40 80 40
v 11 80 23
v 12 80 23
v 12 80 22
v 13 80 22
v 13 80 21
v 14 80 21
v 14 80 20
v 15 80 20
v 15 80 19
v 16 80 19
v 16 80 18
v 17 80 18
v 17 80 17
v 18 80 17
v 18 80 16
v 19 80 16
v 19 80 15
v 20 80 15
v 20 80 14
v 21 80 14
v 21 80 13
v 22 80 13
v 22 80 12
v 23 80 12
v 23 80 11
v 24 80 11
v 24 80 10
v 25 80 10
v -27 80 9
v 11 80 9
v 25 80 9
v 26 80 9
v 26 80 8
v 27 80 8
v 27 80 7
v 28 80 7
v 28 80 6
v 29 80 6
v 29 80 5
v 30 80 5
v 30 80 4
v 31 80 4
v 31 80 3
v 32 80 3
v 32 80 2
v 33 80 2
v 32 80 1
v 33 80 1
v 31 80 -0
v 32 80 -0
v 30 80 -1
v 31 80 -1
v 29 80 -2
v 30 80 -2
v 28 80 -3
v 29 80 -3
v 27 80 -4
v 28 80 -4
v 26 80 -5
v 27 80 -5
v -27 80 -6
v 11 80 -6
v 25 80 -6
v 26 80 -6
v 24 80 -7
v 25 80 -7
v 23 80 -8
v 24 80 -8
v 22 80 -9
v 23 80 -9
v 21 80 -10
v 22 80 -10
v 20 80 -11
v 21 80 -11
v 19 80 -12
v 20 80 -12
v 18 80 -13
v 19 80 -13
v 17 80 -14
v 18 80 -14
v 16 80 -15
v 17 80 -15
v 15 80 -16
v 16 80 -16
v 14 80 -17
v 15 80 -17
v 13 80 -18
v 14 80 -18
v 12 80 -19
v 13 80 -19
v 11 80 -20
v 12 80 -20
v -40 80 -40
v 40 80 -40

# faces
f 3/2/1 2/2/1 1/2/1
f 4/2/1 2/2/1 3/2/1
f 5/2/2 6/2/2 7/2/2
f 7/2/2 6/2/2 8/2/2
f 11/2/3 10/2/3 9/2/3
f 12/2/3 10/2/3 11/2/3
f 13/2/4 14/2/4 15/2/4
f 15/2/4 14/2/4 16/2/4
f 19/2/5 18/2/5 17/2/5
f 20/2/5 18/2/5 19/2/5
f 21/2/6 22/2/6 23/2/6
f 23/2/6 22/2/6 24/2/6
f 23/1/6 24/1/6 25/1/6
f 24/2/6 22/2/6 25/2/6
f 25/2/6 22/2/6 26/2/6
f 25/1/6 26/1/6 27/1/6
f 26/2/6 22/2/6 27/2/6
f 27/2/6 22/2/6 28/2/6
f 27/1/6 28/1/6 29/1/6
f 28/2/6 22/2/6 29/2/6
f 29/2/6 22/2/6 30/2/6
f 29/1/6 30/1/6 31/1/6
f 30/2/6 22/2/6 31/2/6
f 31/2/6 22/2/6 32/2/6
f 31/1/6 32/1/6 33/1/6
f 32/2/6 22/2/6 33/2/6
f 33/2/6 22/2/6 34/2/6
f 33/1/6 34/1/6 35/1/6
f 34/2/6 22/2/6 35/2/6
f 35/2/6 22/2/6 36/2/6
f 35/1/6 36/1/6 37/1/6
f 36/2/6 22/2/6 37/2/6
f 37/2/6 22/2/6 38/2/6
f 37/1/6 38/1/6 39/1/6
f 38/2/6 22/2/6 39/2/6
f 39/2/6 22/2/6 40/2/6
f 39/1/6 40/1/6 41/1/6
f 40/2/6 22/2/6 41/2/6
f 41/2/6 22/2/6 42/2/6
f 41/1/6 42/1/6 43/1/6
f 42/2/6 22/2/6 43/2/6
f 43/2/6 22/2/6 44/2/6
f 43/1/6 44/1/6 45/1/6
f 44/2/6 22/2/6 45/2/6
f 45/2/6 22/2/6 46/2/6
f 45/1/6 46/1/6 47/1/6
f 46/2/6 22/2/6 47/2/6
f 47/2/6 22/2/6 48/2/6
f 47/1/6 48/1/6 49/1/6
f 48/2/6 22/2/6 49/2/6
f 49/2/6 22/2/6 50/2/6
f 21/2/6 23/2/6 51/2/6
f 23/1/6 25/1/6 52/1/6
f 51/2/6 23/2/6 52/2/6
f 25/1/6 27/1/6 52/1/6
f 49/1/6 50/1/6 52/1/6
f 47/1/6 49/1/6 52/1/6
f 45/1/6 47/1/6 52/1/6
f 43/1/6 45/1/6 52/1/6
f 41/1/6 43/1/6 52/1/6
f 39/1/6 41/1/6 52/1/6
f 37/1/6 39/1/6 52/1/6
f 35/1/6 37/1/6 52/1/6
f 33/1/6 35/1/6 52/1/6
f 31/1/6 33/1/6 52/1/6
f 29/1/6 31/1/6 52/1/6
f 27/1/6 29/1/6 52/1/6
f 50/2/6 22/2/6 53/2/6
f 52/1/6 50/1/6 53/1/6
f 53/2/6 22/2/6 54/2/6
f 51/1/6 52/1/6 55/1/6
f 54/2/6 22/2/6 55/2/6
f 53/1/6 54/1/6 55/1/6
f 52/1/6 53/1/6 55/1/6
f 55/2/6 22/2/6 56/2/6
f 55/1/6 56/1/6 57/1/6
f 56/2/6 22/2/6 57/2/6
f 57/2/6 22/2/6 58/2/6
f 57/1/6 58/1/6 59/1/6
f 58/2/6 22/2/6 59/2/6
f 59/2/6 22/2/6 60/2/6
f 59/1/6 60/1/6 61/1/6
f 60/2/6 22/2/6 61/2/6
f 61/2/6 22/2/6 62/2/6
f 61/1/6 62/1/6 63/1/6
f 62/2/6 22/2/6 63/2/6
f 63/2/6 22/2/6 64/2/6
f 63/1/6 64/1/6 65/1/6
f 64/2/6 22/2/6 65/2/6
f 65/2/6 22/2/6 66/2/6
f 65/1/6 66/1/6 67/1/6
f 66/2/6 22/2/6 67/2/6
f 67/2/6 22/2/6 68/2/6
f 65/1/6 67/1/6 69/1/6
f 67/1/6 68/1/6 69/1/6
f 68/2/6 22/2/6 70/2/6
f 69/1/6 68/1/6 70/1/6
f 63/1/6 65/1/6 71/1/6
f 65/1/6 69/1/6 71/1/6
f 69/2/6 70/2/6 72/2/6
f 71/1/6 69/1/6 72/1/6
f 61/1/6 63/1/6 73/1/6
f 63/1/6 71/1/6 73/1/6
f 71/2/6 72/2/6 74/2/6
f 73/1/6 71/1/6 74/1/6
f 59/1/6 61/1/6 75/1/6
f 61/1/6 73/1/6 75/1/6
f 73/2/6 74/2/6 76/2/6
f 75/1/6 73/1/6 76/1/6
f 57/1/6 59/1/6 77/1/6
f 59/1/6 75/1/6 77/1/6
f 75/2/6 76/2/6 78/2/6
f 77/1/6 75/1/6 78/1/6
f 55/1/6 57/1/6 79/1/6
f 57/1/6 77/1/6 79/1/6
f 77/2/6 78/2/6 80/2/6
f 79/1/6 77/1/6 80/1/6
f 51/1/6 55/1/6 81/1/6
f 55/1/6 79/1/6 81/1/6
f 79/2/6 80/2/6 82/2/6
f 81/1/6 79/1/6 82/1/6
f 21/2/6 51/2/6 83/2/6
f 51/1/6 81/1/6 83/1/6
f 83/1/6 81/1/6 84/1/6
f 84/1/6 81/1/6 85/1/6
f 81/2/6 82/2/6 86/2/6
f 85/1/6 81/1/6 86/1/6
f 84/1/6 85/1/6 87/1/6
f 85/2/6 86/2/6 88/2/6
f 87/1/6 85/1/6 88/1/6
f 84/1/6 87/1/6 89/1/6
f 87/2/6 88/2/6 90/2/6
f 89/1/6 87/1/6 90/1/6
f 84/1/6 89/1/6 91/1/6
f 89/2/6 90/2/6 92/2/6
f 91/1/6 89/1/6 92/1/6
f 84/1/6 91/1/6 93/1/6
f 91/2/6 92/2/6 94/2/6
f 93/1/6 91/1/6 94/1/6
f 84/1/6 93/1/6 95/1/6
f 93/2/6 94/2/6 96/2/6
f 95/1/6 93/1/6 96/1/6
f 84/1/6 95/1/6 97/1/6
f 95/2/6 96/2/6 98/2/6
f 97/1/6 95/1/6 98/1/6
f 84/1/6 97/1/6 99/1/6
f 97/2/6 98/2/6 100/2/6
f 99/1/6 97/1/6 100/1/6
f 84/1/6 99/1/6 101/1/6
f 99/2/6 100/2/6 102/2/6
f 101/1/6 99/1/6 102/1/6
f 84/1/6 101/1/6 103/1/6
f 101/2/6 102/2/6 104/2/6
f 103/1/6 101/1/6 104/1/6
f 84/1/6 103/1/6 105/1/6
f 103/2/6 104/2/6 106/2/6
f 105/1/6 103/1/6 106/1/6
f 84/1/6 105/1/6 107/1/6
f 105/2/6 106/2/6 108/2/6
f 107/1/6 105/1/6 108/1/6
f 84/1/6 107/1/6 109/1/6
f 107/2/6 108/2/6 110/2/6
f 109/1/6 107/1/6 110/1/6
f 84/1/6 109/1/6 111/1/6
f 109/2/6 110/2/6 112/2/6
f 111/1/6 109/1/6 112/1/6
f 83/2/6 84/2/6 113/2/6
f 84/1/6 111/1/6 113/1/6
f 111/2/6 112/2/6 114/2/6
f 113/1/6 111/1/6 114/1/6
f 21/2/6 83/2/6 115/2/6
f 83/2/6 113/2/6 115/2/6
f 113/2/6 114/2/6 115/2/6
f 82/2/6 80/2/6 116/2/6
f 115/2/6 114/2/6 116/2/6
f 80/2/6 78/2/6 116/2/6
f 110/2/6 108/2/6 116/2/6
f 108/2/6 106/2/6 116/2/6
f 106/2/6 104/2/6 116/2/6
f 104/2/6 102/2/6 116/2/6
f 102/2/6 100/2/6 116/2/6
f 100/2/6 98/2/6 116/2/6
f 98/2/6 96/2/6 116/2/6
f 96/2/6 94/2/6 116/2/6
f 94/2/6 92/2/6 116/2/6
f 92/2/6 90/2/6 116/2/6
f 90/2/6 88/2/6 116/2/6
f 88/2/6 86/2/6 116/2/6
f 112/2/6 110/2/6 116/2/6
f 114/2/6 112/2/6 116/2/6
f 86/2/6 82/2/6 116/2/6
f 70/2/6 22/2/6 116/2/6
f 72/2/6 70/2/6 116/2/6
f 74/2/6 72/2/6 116/2/6
f 76/2/6 74/2/6 116/2/6
f 78/2/6 76/2/6 116/2/6
